<svg width="16" height="16" xmlns="http://www.w3.org/2000/svg">

 <g>
  <title>background</title>
  <rect fill="none" id="canvas_background" height="402" width="582" y="-1" x="-1"/>
 </g>
 <g>
  <title fill="#0d0d0d">Layer 1</title>
  <path stroke="null" fill="#0d0d0d" id="svg_1" d="m7.886581,14.985534c1.102552,0 2.141951,-0.261385 3.069954,-0.714861c-2.33492,-1.139392 -3.947084,-3.529571 -3.947084,-6.302178s1.612165,-5.162786 3.947084,-6.302178c-0.928003,-0.453476 -1.967402,-0.714861 -3.069954,-0.714861c-3.87516,0 -7.017039,3.141879 -7.017039,7.017039s3.141879,7.017039 7.017039,7.017039z"/>
  <path stroke="null" fill="#0d0d0d" id="svg_2" d="m13.094226,3.289848c0,1.02493 -0.830147,1.855076 -1.855076,1.855076c1.02493,0 1.855076,0.830147 1.855076,1.855076c0,-1.02493 0.830147,-1.855076 1.855076,-1.855076c-1.02493,0 -1.855076,-0.830147 -1.855076,-1.855076z"/>
  <path stroke="null" fill="#0d0d0d" id="svg_3" d="m9.43842,6.181155c0,1.054956 -0.854467,1.909423 -1.909423,1.909423c1.054956,0 1.909423,0.854467 1.909423,1.909423c0,-1.054956 0.854467,-1.909423 1.909423,-1.909423c-1.054956,0 -1.909423,-0.854467 -1.909423,-1.909423z"/>
  <path stroke="null" fill="#0d0d0d" id="svg_4" d="m12.402189,12.746383c0,-1.034938 0.838253,-1.873192 1.873192,-1.873192c-1.034938,0 -1.873192,-0.838253 -1.873192,-1.873192c0,1.034938 -0.838253,1.873192 -1.873192,1.873192c1.034938,0 1.873192,0.838253 1.873192,1.873192z"/>
 </g>
</svg>